<?xml version="1.0" encoding="utf-8"?>
<!-- Generator: Adobe Illustrator 18.1.1, SVG Export Plug-In . SVG Version: 6.00 Build 0)  -->
<svg version="1.1" id="Layer_1" xmlns="http://www.w3.org/2000/svg" xmlns:xlink="http://www.w3.org/1999/xlink" x="0px" y="0px"
	 width="144.048px" height="24.333px" viewBox="0 0 144.048 24.333" enable-background="new 0 0 144.048 24.333"
	 xml:space="preserve">
<path fill="#E9711C" d="M2.913,21.671c2.241,0,3.026-0.473,3.026-2.892V5.386c0-2.419-0.785-2.891-3.026-2.891V1.905h16.787
	l0.252,4.455h-0.56c-0.308-2.479-1.513-3.216-3.839-3.216h-5.325c-1.261,0-1.261,0.355-1.261,2.066v5.693h5.913
	c1.934,0,2.522-0.826,2.718-2.803h0.56v6.844h-0.56c-0.168-1.946-0.813-2.802-2.718-2.802H8.967v6.401
	c0,1.858,0.111,2.476,1.4,2.476h5.914c2.522,0,4.092-1.621,4.821-3.952l0.532,0.207l-1.513,4.985H2.913V21.671"/>
<path fill="#E9711C" d="M21.464,21.671c2.074-0.118,2.831-0.502,2.831-2.832V5.328c0-2.331-0.757-2.715-2.831-2.832V1.905h8.884
	v0.591c-2.243,0-3.027,0.472-3.027,2.891v13.009c0,1.652,0.056,2.625,1.71,2.625h4.008c2.998,0,4.4-1.297,5.576-4.1l0.673,0.118
	l-1.71,5.222H21.464V21.671"/>
<path fill="#E9711C" d="M39.789,16.243h0.561c1.121,2.596,2.886,5.398,5.941,5.398c1.99,0,3.672-1.299,3.672-3.334
	c0-1.652-1.626-3.098-4.176-4.927c-3.279-2.36-5.409-3.746-5.409-6.431c0-3.422,2.55-5.517,5.633-5.517
	c2.214,0,2.999,0.944,4.204,0.944c0.476,0,0.56-0.266,0.476-0.737h0.561l0.645,6.076h-0.561c-0.785-2.625-2.523-5.191-5.354-5.191
	c-1.737,0-3.138,1.356-3.138,3.185c0,1.918,1.933,3.157,5.016,5.016c2.523,1.504,4.99,3.362,4.99,6.254
	c0,3.245-2.608,5.752-5.97,5.752c-2.019,0-4.148-0.855-4.681-0.855c-0.336,0-0.7,0.207-0.756,0.649h-0.56L39.789,16.243"/>
<path fill="#E9711C" d="M52.934,21.671c2.241,0,3.026-0.473,3.026-2.892V5.386c0-2.419-0.785-2.891-3.026-2.891V1.905h16.787
	l0.252,4.455h-0.561c-0.308-2.479-1.514-3.216-3.84-3.216h-5.324c-1.262,0-1.262,0.355-1.262,2.066v5.693H64.9
	c1.934,0,2.522-0.826,2.718-2.803h0.561v6.844h-0.561c-0.168-1.946-0.812-2.802-2.718-2.802h-5.914v6.401
	c0,1.858,0.113,2.476,1.402,2.476h5.913c2.522,0,4.092-1.621,4.82-3.952l0.532,0.207l-1.512,4.985H52.934V21.671"/>
<path fill="#E9711C" d="M81.073,22.497h-0.42L75.244,9.959c-0.896-2.065-1.709-4.159-2.83-6.136
	c-0.478-0.826-1.346-1.327-2.298-1.327V1.905h8.323v0.591c-0.785,0-2.354,0-2.354,1.149c0,0.384,0.869,2.449,1.653,4.308
	l4.063,9.676L86.678,6.27c0.588-1.356,0.757-2.094,0.757-2.713c0-0.618-0.673-0.974-2.13-1.062V1.905h5.941v0.591
	c-0.337,0.059-0.701,0.117-1.037,0.295c-1.066,0.561-2.13,3.569-2.635,4.749L81.073,22.497"/>
<path fill="#E9711C" d="M91.44,21.671c2.241,0,3.025-0.473,3.025-2.892V5.386c0-2.419-0.784-2.891-3.025-2.891V1.905h9.078v0.591
	c-2.241,0-3.025,0.472-3.025,2.891v13.393c0,2.419,0.784,2.892,3.025,2.892v0.59H91.44V21.671"/>
<path fill="#E9711C" d="M101.774,21.671c2.242,0,3.027-0.473,3.027-2.892V5.386c0-2.419-0.785-2.891-3.027-2.891V1.905h16.787
	l0.254,4.455h-0.562c-0.309-2.479-1.514-3.216-3.84-3.216h-5.324c-1.262,0-1.262,0.355-1.262,2.066v5.693h5.913
	c1.935,0,2.522-0.826,2.719-2.803h0.559v6.844h-0.559c-0.168-1.946-0.812-2.802-2.719-2.802h-5.913v6.401
	c0,1.858,0.112,2.476,1.402,2.476h5.912c2.522,0,4.092-1.621,4.82-3.952l0.533,0.207l-1.514,4.985h-17.208V21.671"/>
<path fill="#E9711C" d="M140.919,21.671c-1.261-0.354-1.71-0.679-2.466-1.623l-6.166-7.609c3.027-0.65,5.129-2.185,5.129-5.547
	c0-4.75-4.26-4.986-7.764-4.986h-9.191v0.591c2.241,0,3.026,0.472,3.026,2.891v13.393c0,2.419-0.785,2.892-3.026,2.892v0.59h9.08
	v-0.59c-2.242,0-3.027-0.473-3.027-2.892v-5.604h2.551l7.314,9.086h4.54V21.671 M126.514,4.472c0-1.387,0.337-1.476,2.186-1.476
	c2.774,0,5.297,0.974,5.297,4.308c0,3.599-2.887,4.631-5.914,4.631h-1.569V4.472z"/>
</svg>
